<?xml version="1.0" encoding="UTF-8"?>
<svg id="Layer_1" data-name="Layer 1" xmlns="http://www.w3.org/2000/svg" viewBox="0 0 1080 1080">
  <defs>
    <style>
      .cls-1 {
        fill: #064274;
      }

      .cls-1, .cls-2 {
        stroke-width: 0px;
      }

      .cls-2 {
        fill: #fff;
      }
    </style>
  </defs>
  <rect class="cls-1" width="1080" height="1080"/>
  <g>
    <g>
      <g>
        <polygon class="cls-2" points="586.15 549.71 586.15 549.69 586.17 549.69 613.06 530.24 613.06 590.18 586.15 590.18 586.15 549.72 586.14 549.72 586.15 549.71"/>
        <polygon class="cls-2" points="656.47 590.18 656.47 563.58 613.08 530.23 634.54 514.71 682.9 549.69 682.92 549.69 682.92 549.71 682.93 549.72 682.92 549.72 682.92 590.18 656.47 590.18"/>
      </g>
      <polyline class="cls-2" points="683.06 529.87 683.07 529.87 683.06 529.87 683.06 529.85 683.04 529.85 656.5 510.66 656.5 489.45 683.23 489.45"/>
      <polyline class="cls-2" points="586.11 489.45 612.84 489.45 612.84 510.66 586.31 529.85 586.29 529.85 586.29 529.86 586.27 529.87 586.29 529.87"/>
    </g>
    <g>
      <path class="cls-2" d="m234.95,589.34v-86.09h19.89v68.63h41.71v17.46h-61.6Z"/>
      <path class="cls-2" d="m332.19,590.55c-5.34,0-10.12-.87-14.37-2.61-4.24-1.74-7.84-4.1-10.79-7.09-2.95-2.99-5.2-6.45-6.73-10.37-1.54-3.92-2.3-8.02-2.3-12.31,0-4.61.77-8.95,2.3-13.03,1.53-4.08,3.76-7.66,6.67-10.73,2.91-3.07,6.49-5.5,10.73-7.28,4.24-1.78,9.07-2.67,14.49-2.67s10.22.89,14.43,2.67c4.2,1.78,7.76,4.18,10.67,7.21,2.91,3.03,5.11,6.53,6.61,10.49,1.49,3.96,2.24,8.12,2.24,12.49,0,1.13-.04,2.24-.12,3.33-.08,1.09-.2,2.04-.36,2.85h-47.05c.32,4.29,1.88,7.54,4.67,9.76,2.79,2.22,5.96,3.33,9.52,3.33,2.83,0,5.56-.69,8.18-2.06,2.63-1.37,4.38-3.23,5.27-5.58l16.49,4.61c-2.51,5.01-6.39,9.09-11.64,12.25-5.26,3.15-11.56,4.73-18.92,4.73Zm13.46-39.04c-.41-4.04-1.86-7.23-4.37-9.58-2.51-2.34-5.62-3.52-9.34-3.52s-6.93,1.19-9.4,3.58c-2.47,2.38-3.9,5.56-4.3,9.52h27.4Z"/>
      <path class="cls-2" d="m393.06,590.55c-3.15,0-6.08-.51-8.79-1.52-2.71-1.01-5.03-2.43-6.97-4.24s-3.48-3.96-4.61-6.43c-1.13-2.47-1.7-5.15-1.7-8.06,0-3.15.67-6.02,2-8.61,1.33-2.59,3.21-4.81,5.64-6.67,2.43-1.86,5.29-3.31,8.61-4.37,3.31-1.05,6.99-1.58,11.03-1.58,2.67,0,5.25.22,7.76.67,2.5.45,4.69,1.11,6.55,2v-2.91c0-7.35-4.24-11.03-12.73-11.03-3.48,0-6.79.59-9.94,1.76-3.15,1.17-6.47,2.93-9.94,5.27l-5.7-12.13c4.2-2.75,8.57-4.81,13.1-6.18,4.53-1.37,9.34-2.06,14.43-2.06,9.62,0,17.05,2.26,22.31,6.79,5.25,4.53,7.88,11.16,7.88,19.89v16.37c0,1.94.3,3.29.91,4.06.61.77,1.68,1.23,3.21,1.39v16.37c-1.7.4-3.23.67-4.61.79-1.38.12-2.63.18-3.76.18-3.64,0-6.39-.71-8.25-2.12-1.86-1.41-3.03-3.41-3.52-6l-.36-2.91c-2.83,3.64-6.2,6.43-10.12,8.37-3.92,1.94-8.06,2.91-12.43,2.91Zm5.7-13.94c2.1,0,4.14-.36,6.12-1.09,1.98-.73,3.62-1.7,4.91-2.91,1.86-1.46,2.79-2.99,2.79-4.61v-6.06c-1.7-.65-3.54-1.15-5.52-1.52-1.98-.36-3.82-.55-5.52-.55-3.56,0-6.49.81-8.79,2.43-2.3,1.62-3.46,3.72-3.46,6.31,0,2.34.89,4.26,2.67,5.76,1.78,1.5,4.04,2.24,6.79,2.24Z"/>
      <path class="cls-2" d="m471.15,590.55c-5.42,0-10.75-.87-16.01-2.61-5.26-1.74-9.7-4.26-13.34-7.58l6.91-11.88c3.88,2.67,7.66,4.73,11.34,6.18,3.68,1.45,7.21,2.18,10.61,2.18,2.5,0,4.45-.44,5.82-1.33,1.37-.89,2.06-2.18,2.06-3.88s-.87-3.05-2.61-4.06c-1.74-1.01-4.79-2.08-9.16-3.21-4.29-1.21-7.9-2.38-10.85-3.52-2.95-1.13-5.36-2.38-7.21-3.76-1.86-1.37-3.19-2.95-4-4.73-.81-1.78-1.21-3.88-1.21-6.31,0-3.23.65-6.18,1.94-8.85,1.29-2.67,3.07-4.93,5.34-6.79,2.26-1.86,4.95-3.31,8.06-4.37,3.11-1.05,6.49-1.58,10.13-1.58,4.77,0,9.23.65,13.4,1.94,4.16,1.29,8.18,3.64,12.07,7.03l-7.52,11.64c-3.64-2.5-6.87-4.32-9.7-5.46-2.83-1.13-5.58-1.7-8.25-1.7-2.1,0-3.88.43-5.34,1.27-1.46.85-2.18,2.2-2.18,4.06s.79,3.11,2.36,4c1.58.89,4.5,1.86,8.79,2.91,4.53,1.21,8.35,2.43,11.46,3.64s5.64,2.57,7.58,4.06c1.94,1.5,3.35,3.21,4.24,5.15.89,1.94,1.33,4.24,1.33,6.91,0,6.31-2.35,11.32-7.03,15.04-4.69,3.72-11.03,5.58-19.04,5.58Z"/>
      <path class="cls-2" d="m536.99,590.55c-5.33,0-10.12-.87-14.37-2.61-4.24-1.74-7.84-4.1-10.79-7.09-2.95-2.99-5.19-6.45-6.73-10.37-1.54-3.92-2.3-8.02-2.3-12.31,0-4.61.77-8.95,2.3-13.03,1.53-4.08,3.76-7.66,6.67-10.73,2.91-3.07,6.49-5.5,10.73-7.28,4.24-1.78,9.07-2.67,14.49-2.67s10.23.89,14.43,2.67c4.2,1.78,7.76,4.18,10.67,7.21,2.91,3.03,5.11,6.53,6.61,10.49,1.49,3.96,2.24,8.12,2.24,12.49,0,1.13-.04,2.24-.12,3.33-.08,1.09-.2,2.04-.36,2.85h-47.05c.32,4.29,1.88,7.54,4.67,9.76,2.79,2.22,5.96,3.33,9.52,3.33,2.83,0,5.56-.69,8.18-2.06,2.63-1.37,4.38-3.23,5.28-5.58l16.49,4.61c-2.51,5.01-6.39,9.09-11.64,12.25-5.26,3.15-11.56,4.73-18.92,4.73Zm13.46-39.04c-.41-4.04-1.86-7.23-4.37-9.58s-5.62-3.52-9.34-3.52-6.93,1.19-9.4,3.58c-2.47,2.38-3.9,5.56-4.31,9.52h27.4Z"/>
    </g>
    <g>
      <path class="cls-2" d="m720.4,590.55c-6.55,0-11.5-2.04-14.85-6.12-3.35-4.08-5.03-10.08-5.03-18.01v-40.74h19.4v36.5c0,3.88.77,6.85,2.3,8.91,1.53,2.06,3.72,3.09,6.55,3.09,2.59,0,5.09-.69,7.52-2.06,2.43-1.37,4.57-3.76,6.43-7.15v-39.29h19.4v41.83c0,1.94.3,3.29.91,4.06.61.77,1.68,1.23,3.21,1.39v16.37c-1.86.4-3.44.67-4.73.79-1.29.12-2.47.18-3.52.18-6.95,0-10.91-2.71-11.88-8.12l-.36-3.88c-2.91,4.2-6.53,7.3-10.85,9.28-4.33,1.98-9.15,2.97-14.49,2.97Z"/>
      <path class="cls-2" d="m815.34,590.55c-4.85,0-9.09-1.03-12.73-3.09-3.64-2.06-6.51-4.95-8.61-8.67v10.55h-16.85v-88.52h19.4v35.28c2.1-3.64,4.91-6.49,8.43-8.55,3.52-2.06,7.66-3.09,12.43-3.09,4.04,0,7.76.87,11.16,2.61,3.39,1.74,6.31,4.1,8.73,7.09,2.43,2.99,4.32,6.53,5.7,10.61,1.37,4.08,2.06,8.43,2.06,13.03s-.75,8.91-2.24,12.91c-1.5,4-3.58,7.48-6.25,10.43-2.67,2.95-5.82,5.26-9.46,6.91-3.64,1.66-7.56,2.49-11.76,2.49Zm-5.46-16.37c2.26,0,4.32-.42,6.18-1.27,1.86-.85,3.46-2,4.79-3.46,1.33-1.45,2.38-3.17,3.15-5.15.77-1.98,1.15-4.14,1.15-6.49s-.36-4.43-1.09-6.49c-.73-2.06-1.72-3.86-2.97-5.4-1.25-1.53-2.77-2.75-4.55-3.64-1.78-.89-3.68-1.33-5.7-1.33-3.07,0-5.88,1.05-8.43,3.15-2.55,2.1-4.51,4.73-5.88,7.88v13.34c1.29,2.75,3.17,4.91,5.64,6.49,2.46,1.58,5.03,2.36,7.7,2.36Z"/>
    </g>
  </g>
</svg>